<?xml version="1.0" standalone="no"?>
<!DOCTYPE svg PUBLIC "-//W3C//DTD SVG 20010904//EN"
 "http://www.w3.org/TR/2001/REC-SVG-20010904/DTD/svg10.dtd">
<svg version="1.0" xmlns="http://www.w3.org/2000/svg"
 width="310.000000pt" height="310.000000pt" viewBox="0 0 310.000000 310.000000"
 preserveAspectRatio="xMidYMid meet">
<metadata>
Created by potrace 1.11, written by Peter Selinger 2001-2013
</metadata>
<g transform="translate(0.000000,310.000000) scale(0.100000,-0.100000)"
fill="#000000" stroke="none">
<path d="M0 1550 l0 -1550 557 2 557 3 0 608 c0 520 -2 610 -15 618 -7 5 -19
7 -26 5 -6 -3 -14 2 -17 10 -3 8 -12 14 -21 14 -8 0 -15 5 -15 10 0 6 -6 10
-13 10 -17 0 -117 76 -110 84 4 3 -1 6 -10 6 -10 0 -17 4 -17 10 0 5 -17 9
-37 8 -77 -3 -104 1 -97 15 5 9 4 9 -6 0 -10 -9 -19 -9 -40 2 -15 8 -30 11
-34 8 -3 -4 -6 -2 -6 3 0 6 -16 16 -35 24 -19 7 -32 17 -29 22 3 4 -1 8 -8 8
-15 0 -64 79 -59 95 2 6 4 22 4 38 1 15 6 27 10 27 5 0 6 7 3 16 -3 8 -2 12 4
9 6 -3 10 -1 10 4 0 13 32 51 39 47 3 -2 14 5 23 15 16 17 16 18 -3 24 -10 4
-17 11 -14 16 4 5 1 9 -5 9 -6 0 -14 8 -17 18 -4 9 -15 25 -24 35 -44 47 -40
206 7 256 13 14 24 30 24 36 0 13 42 51 53 47 4 -1 7 2 7 8 0 10 60 45 73 42
4 -1 7 3 7 9 0 5 4 8 9 4 5 -3 12 -1 16 5 4 6 10 8 15 5 5 -3 11 -1 15 4 3 6
13 7 21 4 12 -4 8 7 -11 37 -15 23 -22 39 -16 36 6 -4 11 -2 11 3 0 6 -4 11
-8 11 -5 0 -7 14 -4 30 2 17 8 30 13 30 5 0 9 7 9 15 0 9 7 18 15 21 8 4 15
13 15 21 0 8 5 11 10 8 6 -3 10 -1 10 4 0 6 3 10 8 10 4 -1 10 0 15 1 4 1 10
3 15 5 4 1 15 5 24 9 10 5 47 6 82 4 48 -4 63 -2 59 7 -2 7 2 19 10 27 8 8 18
24 21 36 4 12 12 20 17 17 5 -4 12 1 15 9 3 9 13 16 21 16 8 0 11 5 8 10 -4 6
-3 10 2 9 4 -1 10 0 13 1 17 7 52 5 57 -3 3 -5 9 -4 13 3 5 8 13 9 21 4 8 -5
20 -9 26 -10 7 -1 20 -9 29 -18 8 -9 20 -16 25 -16 5 0 9 -7 9 -15 0 -8 7 -15
15 -15 9 0 12 -6 9 -15 -4 -8 1 -17 10 -21 9 -3 13 -10 10 -15 -3 -5 0 -9 6
-9 6 0 8 -5 4 -11 -4 -7 1 -7 16 1 12 6 28 9 36 6 8 -3 14 -1 14 3 0 11 40 2
59 -13 12 -9 13 -8 6 4 -7 12 -6 13 7 3 8 -7 18 -10 21 -6 4 3 7 1 7 -6 0 -7
4 -10 8 -7 13 8 61 -42 77 -80 16 -38 16 -55 0 -66 -6 -5 -4 -8 5 -8 9 0 11
-3 5 -8 -5 -4 -15 -16 -21 -27 -13 -24 -2 -38 36 -43 14 -2 32 -10 41 -18 8
-8 23 -14 33 -14 9 0 19 -7 22 -15 4 -8 12 -15 18 -15 15 0 76 -65 76 -80 0
-5 3 -10 8 -10 12 0 32 -52 32 -82 0 -16 6 -28 13 -28 7 0 8 -3 2 -8 -12 -9
-13 -32 -1 -51 6 -9 5 -12 -1 -8 -6 4 -13 -6 -17 -23 -9 -48 -9 -47 -48 -91
-10 -10 -15 -19 -11 -19 3 0 -5 -10 -18 -21 -16 -15 -20 -23 -11 -26 7 -3 18
-11 26 -18 7 -8 16 -11 20 -8 3 4 6 -1 6 -10 0 -10 3 -17 8 -17 26 0 46 -125
21 -140 -6 -4 -11 -11 -11 -16 0 -15 -42 -64 -55 -64 -7 0 -13 -4 -13 -8 0 -4
-24 -17 -52 -27 -67 -24 -72 -25 -136 -27 -29 0 -55 -5 -58 -9 -2 -5 -12 -5
-22 -2 -9 3 -14 3 -10 -2 8 -8 -15 -35 -30 -35 -6 0 -12 -7 -16 -15 -3 -8 -13
-15 -21 -15 -9 0 -13 -5 -10 -10 3 -5 -3 -10 -15 -10 -11 0 -23 -7 -26 -15 -4
-8 -10 -12 -15 -9 -5 3 -9 0 -9 -6 0 -6 -4 -9 -8 -6 -5 3 -20 -5 -33 -17 -13
-12 -25 -21 -26 -19 -2 1 -9 2 -15 2 -9 0 -8 -4 2 -10 8 -5 10 -10 4 -10 -14
0 -13 -132 1 -142 7 -5 6 -8 -1 -8 -6 0 -11 -14 -12 -30 0 -21 3 -28 11 -23 7
4 6 0 -2 -10 -11 -14 -11 -17 0 -17 9 0 10 -3 3 -8 -13 -9 -13 -135 1 -144 7
-5 6 -8 -1 -8 -6 0 -11 -14 -12 -30 0 -21 3 -28 11 -23 7 4 6 0 -2 -10 -11
-14 -11 -17 0 -17 9 0 10 -3 3 -8 -13 -9 -13 -135 1 -144 6 -5 6 -8 -2 -8 -14
0 -14 -39 1 -59 8 -10 8 -13 0 -9 -13 8 -13 -130 0 -151 6 -9 5 -12 -1 -8 -12
7 -11 -133 1 -152 6 -9 5 -12 0 -8 -6 3 -10 -31 -10 -89 l1 -94 688 0 c586 0
687 2 687 14 0 8 -3 16 -7 18 -10 4 -43 53 -62 91 -8 15 -18 27 -23 27 -4 0
-8 7 -8 15 0 8 -4 15 -10 15 -5 0 -10 7 -10 15 0 8 -4 15 -10 15 -5 0 -10 7
-10 15 0 9 -7 18 -15 21 -8 4 -12 10 -9 15 3 5 0 9 -5 9 -6 0 -11 6 -11 13 0
7 -8 22 -18 33 -11 11 -21 24 -23 29 -13 31 -52 85 -61 85 -6 0 -8 6 -5 13 3
8 -3 20 -14 28 -10 7 -19 19 -19 25 0 7 -7 19 -15 27 -8 8 -26 36 -40 63 -14
26 -25 41 -25 33 0 -13 -15 11 -52 81 -7 14 -19 31 -26 38 -7 8 -19 27 -27 43
-9 16 -20 29 -25 29 -6 0 -10 9 -10 19 0 10 -7 21 -15 25 -8 3 -15 12 -15 21
0 8 -5 15 -11 15 -5 0 -8 4 -5 9 3 5 -1 12 -9 15 -13 5 -13 9 -3 25 7 11 14
18 16 16 3 -2 17 2 33 11 16 8 32 15 36 16 5 1 17 10 27 20 11 10 23 18 28 18
4 0 10 0 13 0 3 0 13 8 24 18 42 39 84 72 93 72 5 0 8 3 6 7 -5 10 59 72 67
65 3 -3 5 2 5 11 0 9 8 21 18 26 9 6 14 11 9 11 -4 0 1 9 10 19 34 38 44 51
36 51 -4 0 -3 4 4 8 16 10 93 164 87 174 -3 4 -1 8 5 8 5 0 12 18 16 40 4 22
10 40 14 40 4 0 7 8 8 18 1 16 5 34 19 100 8 38 14 72 17 108 2 17 7 37 12 44
5 8 4 11 -2 7 -6 -4 -8 12 -6 41 4 53 6 135 3 142 -1 3 -3 33 -4 67 -1 34 -5
65 -9 69 -4 4 -7 21 -7 39 0 17 -6 37 -12 44 -11 11 -10 12 2 6 12 -7 13 -6 3
6 -7 9 -14 29 -16 45 -2 17 -7 35 -11 42 -4 7 -9 22 -11 34 -3 12 -8 24 -12
27 -5 3 -9 13 -11 21 -4 19 -54 123 -62 130 -4 3 -18 24 -32 48 -13 23 -28 39
-31 35 -4 -3 -7 0 -7 8 0 24 -184 199 -209 199 -5 0 -11 3 -13 8 -1 4 -18 18
-37 31 -19 13 -30 17 -26 10 4 -8 -2 -4 -14 9 -12 12 -26 20 -30 17 -5 -2 -16
4 -26 15 -9 10 -23 16 -31 13 -8 -3 -14 1 -14 8 0 7 -3 10 -6 6 -4 -3 -24 3
-46 14 -21 11 -43 17 -48 14 -6 -3 -10 -3 -10 2 0 12 -79 35 -92 27 -7 -5 -8
-2 -3 6 6 10 3 12 -13 8 -12 -4 -22 -3 -22 1 0 7 -15 11 -53 12 -11 0 -15 5
-10 12 4 7 0 6 -10 -2 -9 -7 -17 -9 -17 -4 0 5 -6 10 -12 10 -7 0 -35 4 -63 8
-27 4 -69 8 -92 9 -22 0 -39 4 -37 8 2 3 -338 7 -756 7 l-760 2 0 -1551z"/>
</g>
</svg>
